# xmcd CD database file
#
# Track frame offsets:
#	150
#	5609
#	22521
#	40038
#	55841
#	75691
#
# Disc length: 1235 seconds
#
# Revision: 0
# Processed by: cddbd v1.4PL0 Copyright (c) Steve Scherf et al.
# Submitted via: Feurio! 1.65 - http://www.feurio.com
#
DISCID=3404d106
DTITLE=DNW - Beat CD
DYEAR=1900
DGENRE=
TTITLE0=Intro
TTITLE1=Ohr
TTITLE2=Schizo
TTITLE3=Gott
TTITLE4=Unseriös
TTITLE5=Pech RMX
EXTD=
EXTT0=
EXTT1=
EXTT2=
EXTT3=
EXTT4=
EXTT5=
PLAYORDER=
